<?xml version="1.0" encoding="utf-8"?>
<!-- Generator: Adobe Illustrator 28.2.0, SVG Export Plug-In . SVG Version: 6.00 Build 0)  -->
<svg version="1.1" id="Layer_1" xmlns="http://www.w3.org/2000/svg" xmlns:xlink="http://www.w3.org/1999/xlink" x="0px" y="0px"
	 viewBox="0 0 604 720" style="enable-background:new 0 0 604 720;" xml:space="preserve">
<style type="text/css">
	.st0{fill-rule:evenodd;clip-rule:evenodd;fill:#C0C0C0;}
</style>
<path class="st0" d="M591,659.3c0,25.8-20.9,46.7-46.7,46.7H59.7C33.9,706,13,685.1,13,659.3V350.4c0-25.8,20.9-46.7,46.7-46.7h49.5
	c0.1,0,0.1,0,0.1-0.1v-94.5c0-108.1,88.5-196.5,196.6-194.4c104.6,2.1,188.8,87.5,188.8,192.6v96.2c0,0.1,0,0.1,0.1,0.1h49.5
	c25.8,0,46.7,20.9,46.7,46.7 M205.7,207.3c0-51.7,40.7-93.8,91.8-96.2c55.1-2.6,100.9,42.4,100.9,97.6v94.9c0,0.1,0,0.1-0.1,0.1
	H205.8c-0.1,0-0.1,0-0.1-0.1V207.3z"/>
</svg>
