<?xml version="1.0" encoding="utf-8"?>
<!-- Generator: Adobe Illustrator 28.2.0, SVG Export Plug-In . SVG Version: 6.00 Build 0)  -->
<svg version="1.1" id="Layer_2_00000129916176377741498430000013999749437778088085_"
	 xmlns="http://www.w3.org/2000/svg" xmlns:xlink="http://www.w3.org/1999/xlink" x="0px" y="0px" viewBox="0 0 606.3 181.4"
	 style="enable-background:new 0 0 606.3 181.4;" xml:space="preserve">
<style type="text/css">
	.st0{fill:#111111;}
	.st1{fill:#FFFFFF;}
	.st2{fill:#F2693D;}
	.st3{fill:url(#SVGID_1_);}
</style>
<g>
	<g>
		<path class="st0" d="M212,47.6V0.1h11.1l26.2,31.6h-5.2V0.1h13.2v47.5h-11.1L220,16h5.2v31.6L212,47.6L212,47.6z"/>
		<path class="st0" d="M266.7,47.6V0.1H304v10.4h-24v26.7h24.8v10.4H266.7z M279.1,28.5v-10h22.1v10H279.1z"/>
		<path class="st0" d="M323.4,47.6L308,0.1h13.9l13,41.1h-7l13.6-41.1h12.4l12.9,41.1H360l13.4-41.1h12.8l-15.4,47.5h-14.4l-11-35
			h3.9l-11.5,35L323.4,47.6L323.4,47.6z"/>
	</g>
	<g>
		<path class="st0" d="M227.4,114L212,66.5h13.9l13,41.1h-7l13.6-41.1h12.3l12.9,41.1H264l13.4-41.1h12.8L274.8,114h-14.4l-11-35
			h3.9l-11.5,35L227.4,114L227.4,114z"/>
		<path class="st0" d="M318.4,114.9c-3.8,0-7.3-0.6-10.5-1.8s-6-2.9-8.4-5.2s-4.2-4.8-5.5-7.8c-1.3-3-2-6.3-2-9.8s0.7-6.9,2-9.8
			c1.3-3,3.2-5.6,5.5-7.8c2.4-2.2,5.2-4,8.4-5.2s6.7-1.8,10.5-1.8s7.4,0.6,10.6,1.8s6,2.9,8.3,5.2c2.4,2.2,4.2,4.8,5.5,7.8
			s2,6.3,2,9.8s-0.7,6.9-2,9.9c-1.3,3-3.2,5.6-5.5,7.8s-5.1,3.9-8.3,5.2S322.2,114.9,318.4,114.9L318.4,114.9z M318.4,103.8
			c1.8,0,3.5-0.3,5.1-0.9s2.9-1.6,4.1-2.8s2.1-2.6,2.7-4.3c0.7-1.7,1-3.5,1-5.6s-0.3-3.9-1-5.6c-0.7-1.7-1.6-3.1-2.7-4.3
			s-2.5-2.1-4.1-2.8c-1.6-0.6-3.2-0.9-5.1-0.9s-3.5,0.3-5.1,0.9s-2.9,1.6-4.1,2.8s-2.1,2.6-2.7,4.3c-0.7,1.7-1,3.5-1,5.6
			s0.3,3.9,1,5.6c0.7,1.7,1.6,3.1,2.7,4.3s2.5,2.1,4.1,2.8S316.6,103.8,318.4,103.8z"/>
		<path class="st0" d="M351.9,114V66.5h21.2c6.9,0,12.2,1.6,16,4.7s5.6,7.4,5.6,12.9c0,3.6-0.9,6.7-2.6,9.3c-1.7,2.6-4.1,4.6-7.3,6
			c-3.1,1.4-6.9,2.1-11.2,2.1h-14.2l6-5.6V114L351.9,114L351.9,114z M365.3,97.2l-6-6.2h13.4c2.8,0,4.9-0.6,6.3-1.8s2.1-2.9,2.1-5.1
			s-0.7-3.9-2.1-5.2s-3.5-1.8-6.3-1.8h-13.4l6-6.2C365.3,70.9,365.3,97.1,365.3,97.2z M381.2,114l-11.8-17.3h14.3l11.9,17.3H381.2z"
			/>
		<path class="st0" d="M402.1,114V66.5h13.4v36.9h22.7V114L402.1,114L402.1,114z"/>
		<path class="st0" d="M443.5,114V66.5H466c5.2,0,9.9,1,13.9,2.9s7.1,4.7,9.3,8.2s3.4,7.7,3.4,12.6s-1.1,9-3.4,12.6
			s-5.4,6.3-9.3,8.2c-4,1.9-8.6,2.9-13.9,2.9C466,114,443.5,114,443.5,114z M456.9,103.3h8.5c2.7,0,5.1-0.5,7.1-1.5s3.6-2.5,4.7-4.5
			s1.7-4.3,1.7-7s-0.6-5.1-1.7-7.1s-2.7-3.4-4.7-4.4c-2-1-4.4-1.5-7.1-1.5h-8.5V103.3L456.9,103.3z"/>
	</g>
	<g>
		<path class="st0" d="M238.2,181.3c-3.8,0-7.2-0.6-10.4-1.8s-5.9-2.9-8.3-5.1c-2.3-2.2-4.1-4.8-5.5-7.8c-1.3-3-2-6.3-2-9.9
			s0.7-6.9,2-9.9c1.3-3,3.1-5.6,5.5-7.8s5.1-3.9,8.3-5.1c3.2-1.2,6.7-1.8,10.4-1.8c4.4,0,8.3,0.8,11.8,2.3c3.5,1.5,6.4,3.8,8.6,6.6
			l-8.6,7.7c-1.5-1.8-3.2-3.2-5.1-4.1s-3.9-1.4-6.1-1.4c-1.9,0-3.7,0.3-5.4,0.9s-3,1.6-4.2,2.8s-2.1,2.6-2.7,4.3
			c-0.7,1.7-1,3.5-1,5.6s0.3,3.9,1,5.6c0.7,1.7,1.6,3.1,2.7,4.3c1.1,1.2,2.6,2.1,4.2,2.8s3.4,0.9,5.4,0.9c2.3,0,4.3-0.5,6.1-1.4
			s3.5-2.3,5.1-4.1l8.6,7.7c-2.3,2.9-5.2,5.1-8.6,6.6C246.5,180.6,242.6,181.3,238.2,181.3L238.2,181.3z"/>
		<path class="st0" d="M286.1,181.3c-3.8,0-7.3-0.6-10.5-1.8s-6-2.9-8.4-5.2s-4.2-4.9-5.5-7.8c-1.3-3-2-6.3-2-9.8s0.7-6.9,2-9.8
			c1.3-3,3.2-5.6,5.5-7.8s5.2-4,8.4-5.2s6.7-1.8,10.5-1.8s7.4,0.6,10.6,1.8s6,2.9,8.3,5.2c2.4,2.2,4.2,4.9,5.5,7.8
			c1.3,3,2,6.3,2,9.8s-0.7,6.9-2,9.9c-1.3,3-3.2,5.6-5.5,7.8s-5.1,3.9-8.3,5.2C293.4,180.7,289.9,181.3,286.1,181.3L286.1,181.3z
			 M286.1,170.2c1.8,0,3.5-0.3,5.1-0.9c1.6-0.6,2.9-1.6,4.1-2.8s2.1-2.6,2.7-4.3c0.7-1.7,1-3.5,1-5.6s-0.3-3.9-1-5.6
			c-0.7-1.6-1.6-3.1-2.7-4.3s-2.5-2.1-4.1-2.8s-3.2-0.9-5.1-0.9s-3.5,0.3-5.1,0.9c-1.6,0.6-2.9,1.6-4.1,2.8s-2.1,2.6-2.7,4.3
			c-0.7,1.6-1,3.5-1,5.6s0.3,3.9,1,5.6c0.7,1.7,1.6,3.1,2.7,4.3s2.5,2.1,4.1,2.8S284.3,170.2,286.1,170.2z"/>
		<path class="st0" d="M341.5,181.3c-7,0-12.5-1.9-16.4-5.8s-5.9-9.3-5.9-16.4v-26.3h13.4v25.9c0,4.1,0.8,7,2.4,8.8
			c1.6,1.8,3.8,2.6,6.6,2.6s5-0.9,6.6-2.6s2.4-4.7,2.4-8.8v-25.9h13.2v26.3c0,7.1-2,12.5-5.9,16.4S348.5,181.3,341.5,181.3
			L341.5,181.3z"/>
		<path class="st0" d="M372.9,180.4v-47.5h21.2c6.9,0,12.2,1.6,16,4.7c3.7,3.1,5.6,7.4,5.6,12.9c0,3.6-0.9,6.7-2.6,9.3
			c-1.7,2.6-4.1,4.6-7.3,6s-6.9,2.1-11.2,2.1h-14.2l6-5.6v18.3H372.9L372.9,180.4z M386.3,163.5l-6-6.2h13.4c2.8,0,4.9-0.6,6.3-1.8
			s2.1-2.9,2.1-5.1s-0.7-3.9-2.1-5.2s-3.5-1.8-6.3-1.8h-13.4l6-6.2V163.5L386.3,163.5z M402.3,180.4l-11.8-17.3h14.3l11.9,17.3
			H402.3z"/>
		<path class="st0" d="M432.6,180.4v-36.9H418v-10.7h42.6v10.7H446v36.9H432.6z"/>
		<path class="st0" d="M457.5,180.4l21-47.5h13.2l21,47.5h-14l-16.4-40.9h5.3l-16.4,40.9L457.5,180.4L457.5,180.4z M469,171.1
			l3.5-9.9h23.2l3.5,9.9H469L469,171.1z"/>
		<path class="st0" d="M539.6,181.3c-3.8,0-7.2-0.6-10.5-1.8s-6-2.9-8.3-5.1c-2.3-2.2-4.2-4.8-5.5-7.8s-2-6.3-2-9.9s0.7-6.9,2-9.9
			c1.3-3,3.1-5.6,5.5-7.8c2.3-2.2,5.2-3.9,8.4-5.1c3.2-1.2,6.8-1.8,10.6-1.8c4.5,0,8.5,0.8,12,2.2s6.5,3.6,8.8,6.4l-8.5,7.7
			c-1.6-1.8-3.4-3.1-5.3-4s-4-1.3-6.3-1.3c-2,0-3.9,0.3-5.6,0.9c-1.7,0.6-3.1,1.6-4.3,2.8c-1.2,1.2-2.1,2.6-2.8,4.3
			c-0.7,1.6-1,3.5-1,5.6s0.3,3.8,1,5.5c0.7,1.7,1.6,3.1,2.8,4.3s2.6,2.1,4.2,2.8c1.7,0.7,3.5,1,5.5,1s3.9-0.3,5.8-1
			c1.9-0.7,3.8-1.8,5.8-3.4l7.5,9.4c-2.7,1.9-5.9,3.4-9.4,4.5C546.5,180.8,543,181.3,539.6,181.3L539.6,181.3z M559.6,175.3
			l-11.9-1.8v-17.9h11.9V175.3L559.6,175.3z"/>
		<path class="st0" d="M568.1,180.4v-47.5h37.3v10.4h-24V170h24.8v10.4H568.1z M580.5,161.3v-10.1h22.1v10.1H580.5z"/>
	</g>
</g>
<g>
	<circle class="st1" cx="92.7" cy="90.2" r="69.3"/>
	<polygon class="st2" points="40.4,42.2 60.2,21.4 112.4,18.2 138.9,37.7 134.6,56.8 98.5,88.9 75.7,88.9 40.4,56.3 	"/>
	
		<linearGradient id="SVGID_1_" gradientUnits="userSpaceOnUse" x1="0" y1="93.3" x2="181.4" y2="93.3" gradientTransform="matrix(1 0 0 -1 0 184)">
		<stop  offset="0" style="stop-color:#136EB7"/>
		<stop  offset="1" style="stop-color:#2E3995"/>
	</linearGradient>
	<path class="st3" d="M90.7,0C40.7,0,0,40.7,0,90.7s40.7,90.7,90.7,90.7s90.7-40.7,90.7-90.7S140.7,0,90.7,0z M125.3,40.9L90.7,75.4
		L56.1,40.9C65.9,34,77.9,30,90.7,30S115.5,34,125.3,40.9L125.3,40.9z M90.7,151.4c-33.5,0-60.7-27.2-60.7-60.7
		c0-9.7,2.3-18.9,6.4-27.1l40.6,40.6c3.8,3.8,8.7,5.6,13.6,5.6s9.9-1.9,13.7-5.6L145,63.6c4.1,8.2,6.4,17.4,6.4,27.1
		C151.4,124.2,124.2,151.4,90.7,151.4z"/>
</g>
</svg>
